<?xml version="1.0" encoding="UTF-8"?>
<svg id="Capa_1" xmlns="http://www.w3.org/2000/svg" version="1.1" viewBox="0 0 120 120">
  <!-- Generator: Adobe Illustrator 29.6.0, SVG Export Plug-In . SVG Version: 2.1.1 Build 207)  -->
  <defs>
    <style>
      .st0 {
        fill: #fff;
      }
    </style>
  </defs>
  <path d="M92.76,117.83c-.06.06-1.33.65-1.45.68-.12.03-.23.06-.35,0l-7.02-4.65c-.26-.26.07-.9-.21-1.11l-20.96-9.84-.41.13c-3.13-1.29-6.16-2.88-9.23-4.33-12.31-5.81-24.64-11.56-36.94-17.4V8.82c2.07-.96,4.15-1.89,6.21-2.87,2.97-1.41,6.02-3.04,9.03-4.31.2-.09.45-.23.65-.19,16,7.66,32.06,15.19,48.07,22.82,7.49,3.57,15.05,7.08,22.49,10.76.19.1,1.07.5,1.13.62l.03,71.27-.21.28-10.75,5.03-.09,5.61ZM102.69,35.72L32.02,2.09l-14.67,6.88.09.16,70.8,33.55h.14c1.46-.73,2.95-1.38,4.42-2.08,3.14-1.48,6.41-2.97,9.5-4.54.09-.04.49-.2.39-.34ZM88.03,44.66v-1.36L16.72,9.53v8.14c-.01,20.9.01,41.86,0,62.79l.09.51,1.17.5V11.8s.16-.13.21-.15c.17-.05.73.24.93.33,8.88,4.01,17.66,8.34,26.47,12.5,14.16,6.7,28.29,13.45,42.44,20.17ZM18.6,81.39l1.26-.52.07-.21V13.26c0-.12-.03-.16-.12-.23-.28-.22-.89-.39-1.22-.57v68.93ZM20.56,13.37v47l14.07-6.7v-20.95s-13.66-6.54-13.66-6.54c-.11-.19-.11-2.17.02-2.31l10.88-5.18-11.31-5.31ZM40.67,32.92v-10.02c-2.66-1.32-5.35-2.57-8.06-3.79l-10.59,4.98,18.65,8.83ZM41.3,23.29v69.18l20.6,9.74v-23.99s.11-.1.04-.18c-.06-.08-.95-.43-1.11-.55-.09-.07-.1-.15-.11-.25-.18-1.3.22-2.92.07-4.26-.06-.76-.15-1.68-.08-2.44.06-.63.73-.69,1.26-.73v-36.69s-20.67-9.82-20.67-9.82ZM40.67,34.78c-.05-.34.03-.76,0-1.12l-19.14-9.11v1.22l18.95,9.06.26.05s-.07-.08-.07-.1ZM40.67,56.18v-20.57l-5.45-2.62v20.67l5.45,2.51ZM62.53,102.28s1.14-.41,1.19-.45c.07-.06.08-.12.07-.21V34c-.04-.34-.86-.55-1.16-.73l-.11,69ZM65.47,34.6l-1.05-.45c-.18,21.92.24,43.89,0,65.79,0,.56-.07,1.11-.06,1.67l1.11.46V34.6ZM66.09,44.52l8.77-3.98c.05-.09.06-1.21.03-1.36-.01-.08-.03-.13-.11-.17l-8.69-4.06v9.57ZM103.18,106.75V36.28l-14.48,6.92-.11.17.04,1.65c1.37.7,2.85,1.28,4.11,2.16.04,3.99.1,7.99.11,11.98.03,15.06.02,30.2-.08,45.25-.02,2.36.02,4.73,0,7.09l10.41-4.75ZM75.52,39.42v1.19l8.28,3.9c.21-.4.67-.47,1.01-.73l-9.29-4.37ZM83.83,45.15l-8.63-4.05-9.04,4.08c-.08.05-.06.13-.07.21-.07.57-.07,2.3,0,2.87,0,.08,0,.15.07.21l17.67,8.34v-11.66ZM91.8,47.24l-6.21-3.04-.77.35,6.22,3.01c.22.05.64-.13.77-.32ZM90.82,117.64V48.18l-6.36-3.11v68.34l6.36,4.23ZM92.22,117.43V47.87l-.77.38v69.46l.77-.28ZM83.83,57.44l-17.74-8.38v1.29l17.74,8.42v-1.33ZM74.89,55.2l-8.8-4.12v45.75c2.67-1.31,5.45-2.41,8.13-3.71.23-.11.67-.24.68-.51v-33.31s-6.24-2.9-6.24-2.9c-1.45.69-1.79-1.75-.98-2.46.58-.5,1.41-.34,1.69.39l5.52,2.62v-1.75ZM40.67,70.29v-13.37l-5.73-2.73c-4.32,2.07-8.63,4.19-12.96,6.24-.34.16-.71.32-1.07.43l19.76,9.43ZM83.83,61.84c-.09,0-.18-.02-.26-.05-3.72-1.73-7.4-3.54-11.1-5.31-.98-.47-3.08-1.23-3.83-1.83-.12-.09-.24-.51-.44-.16-.1.17-.25,1-.09,1.11l.75.16,14.97,7.07v-.98ZM83.83,61.14v-1.64l-8.31-3.95v1.75l8.31,3.84ZM83.83,63.52l-8.28-3.91c-.25.23-.01.58-.03.87v32.26s8.31,3.96,8.31,3.96v-33.17ZM40.67,70.99l-20.11-9.5v1.33l20.11,9.43v-1.26ZM20.56,63.52v15.85l8.24-3.84-7.16-3.35-.03-8.07c-.04-.22-.82-.51-1.05-.59ZM40.67,72.94l-18.44-8.66v7.51l18.44,8.7v-7.54ZM61.69,70.57c-.17-.01-.33-.02-.35.17l.04,6.33.31.06v-6.57ZM40.67,89.15v-7.93l-11.14-5.27c-2.84,1.25-5.61,2.67-8.49,3.84l19.63,9.36ZM40.67,90.4l-.07-.66-20.04-9.46.07.66,20.04,9.46ZM40.67,92.15v-1.01l-20.39-9.71-1.4.49,21.79,10.23ZM83.83,97.39l-8.69-4.05-9.04,4.13v.09s.06,3.43.06,3.43l17.67,8.27v-11.87ZM83.83,110.66c-.03-.19.07-.61-.07-.73l-17.67-8.35.04.78,17.7,8.3ZM83.83,112.12c-.04-.24.1-.68-.11-.83-4.72-2.14-9.35-4.45-14.04-6.63-.75-.35-5.06-2.45-5.49-2.37-.18.03-.45.28-.68.27l20.32,9.57Z"/>
  <path class="st0" d="M61.69,70.57v6.57l-.31-.06-.04-6.33c.02-.2.18-.19.35-.17Z"/>
  <path d="M87.9,90.81c-.08-.08-.08-.25-.09-.36v-6.5c.07-.32,1.67-1.02,1.61-.21v7.4c-.02.16-.22.26-.37.23-.06,0-1.11-.52-1.15-.56ZM88.79,84.12l-.35.11c.03,2.03-.04,4.08.04,6.1l.35.21-.03-6.43Z"/>
  <path d="M43.38,26.72c.09-.02.15,0,.23.02.4.11,1.32.61,1.77.82,4.5,2.06,9.12,4.23,13.55,6.43.29.14,1.08.45,1.15.74l-.02,63.92-.22.2-16.63-7.93.02-64.07c.04-.06.09-.11.16-.13ZM59.46,98.02v-63.03l-15.71-7.44v63.07l15.71,7.4Z"/>
  <path d="M34.58,71.84c.15.15.25,1.87-.4,1.63l-5.44-2.59c-.23-.21-.36-2.02.42-1.6l5.43,2.57ZM34.03,72.25l-4.88-2.24.08.37,4.7,2.28c.18.05.09-.31.09-.41Z"/>
  <path class="st0" d="M88.79,84.12l.03,6.43-.35-.21c-.08-2.02,0-4.07-.04-6.1l.35-.11Z"/>
  <path d="M55.88,50.12c.15.15.1.43-.08.54l-7.84,7.04c-.19.03-.38-.11-.37-.3.01-.16,1.62-1.64,1.88-1.88,1.95-1.8,3.98-3.52,5.9-5.34.12-.13.37-.19.51-.05Z"/>
  <path d="M54.97,47.05c.23-.07.45.04.44.3-.01.14-.5.57-.63.7-1.79,1.74-3.85,3.42-5.73,5.1-.27.24-1.4,1.43-1.64,1.43-.53,0-.29-.48-.04-.73,1.87-1.81,3.98-3.57,5.94-5.31.3-.27,1.38-1.41,1.66-1.49Z"/>
</svg>