<?xml version="1.0" encoding="UTF-8"?>
<svg id="Capa_1" xmlns="http://www.w3.org/2000/svg" version="1.1" viewBox="0 0 100 100">
  <!-- Generator: Adobe Illustrator 29.6.1, SVG Export Plug-In . SVG Version: 2.1.1 Build 9)  -->
  <defs>
    <style>
      .st0 {
        fill: #fff;
      }
    </style>
  </defs>
  <path class="st0" d="M66.08,4.9c3.03.66,5.56,2.95,5.94,6.13.56,4.72-.32,10.29.05,15.1.08.59-.82,1.67-1.33,1.67h-9.25v3.88h25.45c2.15,0,4.69,3.02,4.5,5.19v53.38c-.3,2.55-1.98,4.22-4.41,4.85h-36.99c-1.68-.52-3.07-1.27-3.85-2.93-.11-.24-.55-1.42-.55-1.56v-9.95H9.97c-.5,0-1.4-1.08-1.33-1.67v-40.7c.07-1.49,1.92-2.22,2.99-1.22.11.1.54.82.54.87v39.19h33.47v-40.96c0-1.8,2.7-4.49,4.49-4.49h7.84V10.98c0-.71.72-1.84.88-2.55H15.08c-1.31,0-2.68,1.71-2.86,2.95-.49,3.36.29,7.62-.04,11.06-.24,2.49-3.21,2.33-3.52.33.65-5.69-2.38-14.65,4.45-17.37l1.53-.5h51.44ZM68.55,24.28v-12.95c0-1.58-2.12-2.95-3.61-2.92s-3.44,1.43-3.44,2.92v12.95h7.05ZM50.53,35.24c-.65.19-1.07.53-1.28,1.19l-.09,53.3c.02.76.38,1.46,1.11,1.7l35.81.15c.76-.02,1.46-.38,1.7-1.11l.15-53.42c-.02-.76-.38-1.46-1.11-1.7l-36.29-.1Z"/>
  <path class="st0" d="M20.58,11.99l29.12.04c.7.22,1.07.71,1.22,1.43l-.07,9.59c-.24.76-.8,1.14-1.59,1.23l-28.81-.09c-.66-.21-1.11-.73-1.22-1.43-.27-1.74-.2-7.14-.02-8.98.09-.94.42-1.53,1.37-1.8ZM47.41,15.47h-24.66v5.28h24.66"/>
  <path class="st0" d="M24.33,57.75c-6.92-1.85-6.66-10.67-.08-12.68-.09-1.67.53-3.83,2.62-2.98,1.31.53.93,1.62,1.01,2.78,1.5.18,4.75,1.58,4.52,3.41-.07.59-.74,1.37-1.33,1.51-1.6.36-1.78-1.14-3.22-1.2v6.78c1.7.84,3.32,1.28,4.58,2.82,3.54,4.34.65,10.74-4.5,12.06-.29,1.02.32,2.14-.62,2.91-1.13.93-2.7.31-2.95-1.09-.08-.45.08-1.54-.21-1.73-1.74-.04-6.75-1.69-5.37-4.11s3.73.77,5.53.51v-8.98ZM24.33,48.94c-.41-.01-.83.51-1.03.82-1,1.56-.72,3.35,1.03,4.11v-4.93ZM27.85,66.38c1.06-.12,1.99-1.4,2.33-2.34.71-1.99-.12-4.28-2.33-4.7v7.05Z"/>
  <path class="st0" d="M17.06,27.85l23.39-.04c2.21.25,2.26,3.26,0,3.53h-23.08c-2.1-.25-2.26-2.92-.31-3.49Z"/>
  <path class="st0" d="M17.06,34.89l23.39-.04c2.21.25,2.26,3.26,0,3.53h-23.08c-2.1-.25-2.26-2.92-.31-3.49Z"/>
  <path class="st0" d="M10.02,28.72c2.51-.48,2.92,3.22.64,3.48s-2.72-3.08-.64-3.48Z"/>
  <path class="st0" d="M54.05,56.38l29.12.04c.6.2.95.55,1.15,1.15v29.25c-.2.6-.55.95-1.15,1.15h-29.25c-.6-.2-.95-.55-1.15-1.15l-.09-28.81c.1-.85.54-1.4,1.37-1.63ZM59.74,59.86h-3.52v3.52h3.52v-3.52ZM66.79,59.86h-3.52v3.52h3.52v-3.52ZM73.83,59.86h-3.52v3.52h3.52v-3.52ZM80.88,59.86h-3.52v3.52h3.52v-3.52ZM59.74,66.91h-3.52v3.52h3.52v-3.52ZM66.79,66.91h-3.52v3.52h3.52v-3.52ZM73.83,66.91h-3.52v3.52h3.52v-3.52ZM80.88,66.91h-3.52v3.52h3.52v-3.52ZM59.74,73.96h-3.52v3.52h3.52v-3.52ZM66.79,73.96h-3.52v3.52h3.52v-3.52ZM73.83,73.96h-3.52v3.52h3.52v-3.52ZM80.88,73.96h-3.52v10.57h3.52v-10.57ZM59.74,81h-3.52v3.52h3.52v-3.52ZM66.79,81h-3.52v3.52h3.52v-3.52ZM73.83,81h-3.52v3.52h3.52v-3.52Z"/>
  <path class="st0" d="M54.05,38.77l29.12.04c.76.24,1.14.8,1.23,1.59l-.09,11.19c-.24.76-.8,1.14-1.59,1.23l-28.81-.09c-.7-.22-1.07-.71-1.22-1.43.23-3.44-.35-7.36-.02-10.74.09-.94.42-1.53,1.37-1.8ZM80.88,42.25h-24.66v7.05h24.66v-7.05Z"/>
</svg>