<?xml version="1.0" encoding="UTF-8"?>
<svg id="Capa_1" xmlns="http://www.w3.org/2000/svg" version="1.1" viewBox="0 0 120 120">
  <!-- Generator: Adobe Illustrator 29.6.0, SVG Export Plug-In . SVG Version: 2.1.1 Build 207)  -->
  <path d="M103.42,6.78c1.91-.14,2.6,1.04,3.39,2.49,1.22,2.22,2.18,4.6,3.44,6.8.17.86-.96.86-1.05,1.16.01.46.61.91.4,1.38l-23.75,17.02c-.27.31.56,1.2.54,1.71,0,.31-.37.52-.35.7,1.15,1.96,2.05,4.08,3.2,6.05.18.3.39.77.65.97l27.47,14.1-.05,18.64-68.35,35.44L7.19,91.12l-.14-.22-.04-17.01c-.78-1.37-1.59-2.73-2.35-4.12-1.05-1.93-3.24-4.92-1.15-6.84l34.69-23.94c21.77-10.67,43.43-21.58,65.22-32.2ZM103.42,7.95l-63.99,31.63c-.44.37-.44,1.54-.28,2.07l3.73,7.04.16.08c22.04-10.71,43.91-21.76,65.87-32.63l.02-.19-3.57-7.12c-.53-.63-1.07-1.03-1.95-.88ZM108.28,17.72l-64.73,32c.2.19.4.99.72.91,21.37-10.78,42.86-21.31,64.11-32.33.2-.16-.08-.37-.1-.58ZM100.93,23.46l-56.81,28.44-21.56,14.71.17.47,53.47-26.01c8.35-5.72,16.55-11.65,24.72-17.61ZM84.85,36.39l-5.12,3.54-.05.14.41.89,5.04-3.72.04-.14-.32-.71ZM89.88,47.79c.03-.12-.03-.22-.07-.33-.49-1.35-1.85-3.6-2.58-4.97-.55-1.03-1.32-2.73-1.95-3.62-.2-.29-.41-.37-.42.05l4.65,8.92.36-.06ZM85.75,43.03l-1.84-3.49-1.93,1.47,3.77,2.02ZM37.99,40.52L4.09,63.77c-.51.65-.46,1.53-.2,2.27l3.84,6.94.23-.04c11.5-7.64,22.71-15.69,34.07-23.53l-3.7-6.94c-.26-.63-.4-1.26-.34-1.95ZM78.82,40.8c-.2-.12-.98.48-.88.62l1.61.81-.73-1.42ZM80.9,41.96l-.18.05.04.14,5.53,10.68-5.39-10.86ZM91.95,49.41l3.28,6.37c.83.6,2.15.98,2.94,1.55,1.57,1.11-1.26,2.16-1.98,2.66-.37.08-1.26-.46-1.64-.66-4-2-7.91-4.21-11.9-6.24-.28-.3-.23-1.05-.03-1.39.22-.37,1.35-.61,1.33-.89l-3.38-6.77c-.06-.17-.18-.22-.31-.31-.97-.66-2.43-1-3.43-1.69l-.03,11.48,23.42,11.92,11.49-5.98-19.75-10.05ZM87.19,45.82c.08-.08-.5-1.01-.63-1.12l-4.22-2.2.68,1.24,4.16,2.08ZM75.61,42.59l-52.79,25.73,4.67,9.16.15.12,47.88-24.01.14-.21-.05-10.78ZM89.42,49.16c-.88.08-.9-1.24-1.42-1.67l-4.13-2.11c.95,2.19,2.02,4.35,3.24,6.42l4.84,2.47-2.53-5.1ZM115.74,59.38l-24.96-12.66.42,1.08,21.79,11.05c.42.22.43.7.19,1.06l-64.3,33.48c-1.31-.54-2.61-1.25-3.89-1.91-11.21-5.81-22.31-11.84-33.52-17.66-.46-.23-.43-.84-.15-1.2l2.51-1.25-.53-.63-4.08,2.65-.06.19c1.61.73,3.19,1.56,4.76,2.38,11.14,5.82,22.19,11.91,33.4,17.6.29.15,1.44.78,1.64.75l50.26-26.16,16.52-8.75ZM14.47,70.59l28.63-19.26c.16-.1.05-.09,0-.18-.09-.17-.38-.62-.5-.76s-.07-.06-.18,0c-9.38,6.6-18.82,13.15-28.22,19.71l.26.49ZM84.58,51.92l-.9.49,1.35.67-.45-1.17ZM93.83,57.67l-.95-1.61-5.52-2.88c-.05.36-.35.67-.72.72l7.18,3.77ZM98.95,66.02l-22.43-11.47-.4-.1-48.18,24.24v.11c.53.88.94,2.34,1.53,3.14.13.18.26.25.44.36l18.96,9.92c16.08-8.47,32.27-16.74,48.37-25.17.47-.25,1.17-.57,1.59-.83.09-.06.16,0,.12-.2ZM94.19,57.94l1.76.9,1.29-.76-1.65-.85-.66.6-.74.11ZM49.39,111.81l66.98-34.79v-16.65l-66.98,34.97v16.48ZM21.64,67.1l-5.2,3.55c.24.18.23.72.58.5,1.6-1.03,3.06-2.29,4.62-3.37l.18-.27-.18-.41ZM26.49,78.05l-4.71-9.07c-.11.11-.26.19-.19.36l4.46,8.79.44-.09ZM20.75,69.88l-2.5,1.75,3.07,6.13,3.12,1.6c.23-.22.52-.26.78-.39.09-.04.14.02.11-.15l-4.58-8.93ZM17.79,75.89l-2.12-4.21-3,1.43,5.12,2.78ZM17.42,72.21l-.17.13,2.42,4.63-2.25-4.76ZM48.31,95.2l-40.22-20.92v16.03l40.22,21.41v-16.52ZM26.31,80.38l-.27-.59-.45.05c-.15.2.6.46.72.54Z"/>
  <path d="M80.16,28.87c.26.26.11.87-.28.98l-6.8,3.45c-.74.18-.98-.74-.33-1.06l6.64-3.41c.19-.11.62-.11.76.04Z"/>
</svg>