<?xml version="1.0" encoding="UTF-8"?>
<svg id="Capa_1" xmlns="http://www.w3.org/2000/svg" version="1.1" viewBox="0 0 400 200">
  <!-- Generator: Adobe Illustrator 29.6.0, SVG Export Plug-In . SVG Version: 2.1.1 Build 207)  -->
  <defs>
    <style>
      .st0 {
        isolation: isolate;
      }
    </style>
  </defs>
  <g>
    <path d="M381.74,144.18c-31.41,0-63.56-1.04-90.8-8.04-41.82-10.72-65.04-32-65.04-61.77,0-35.42,32-60.43,80.67-60.43s80.52,25.6,80.52,58.79c0,18.16-8.63,33.04-26.49,42.27,8.34.3,17.12.15,26.49,0v29.17h-5.36,0ZM310.14,107.11c21.14,0,39.74-12.35,39.74-31.85s-18.75-30.81-43.31-30.81-43.46,11.46-43.46,29.92,19.35,32.75,47.03,32.75h0Z"/>
    <polygon points="123.54 128.67 195.21 128.67 107.75 74.72 160.04 44.76 140.64 13.94 49.68 66.02 49.68 13.94 12.9 13.94 12.9 85.65 12.9 128.85 49.68 128.85 49.68 107.81 70.44 95.93 123.54 128.67"/>
    <polygon points="213.66 125.45 213.66 13.94 176.89 35.03 176.89 102.77 213.66 125.45"/>
  </g>
  <g class="st0">
    <path d="M115.35,156.57v21.41h-6.46v-9.83l-7.76,5.71-7.76-5.71v9.83h-6.46v-21.41l14.22,9.75,14.22-9.75Z"/>
    <path d="M119.38,167.88c0-6.14,5.79-10.77,14.46-10.77s14.44,4.63,14.44,10.77-5.79,10.77-14.44,10.77-14.46-4.63-14.46-10.77ZM141.55,167.88c0-3.29-3.5-5.25-7.7-5.25s-7.73,1.97-7.73,5.25,3.5,5.25,7.73,5.25,7.7-1.99,7.7-5.25Z"/>
    <path d="M176.99,179.19l-18.21-11.26v10.05h-6.46v-21.41l18.21,11.26v-10.05h6.46v21.41Z"/>
    <path d="M206.32,163.17h-9.37v14.81h-6.68v-14.81h-9.37v-5.39h25.42v5.39Z"/>
    <path d="M226.35,175.13h-14.44l-2.96,3.93-4.79-3.53,14.97-19.23,14.97,19.23-4.79,3.53-2.96-3.93ZM222.5,170.01l-3.37-4.44-3.37,4.44h6.73Z"/>
    <path d="M257.27,157.78v10.34c0,6.81-5.17,10.53-13.04,10.53-4.2,0-7.03-1.05-8.65-1.97l2.42-4.93c1.45.73,3.45,1.37,5.95,1.37,4.5,0,6.84-2.1,6.84-5.68v-4.28h-6.46v-5.39h12.93Z"/>
    <path d="M268.84,163.17v2.29h12.5v4.85h-12.5v2.29h15.65v5.39h-22.11v-20.2h22.14v5.39h-15.67Z"/>
    <path d="M290.36,170.98c2.64,1.24,6.25,2.29,10.91,2.29,2.5,0,5.36-.32,5.36-1.37,0-.83-1.8-.97-4.31-1.13-9.26-.59-13.55-2.15-13.55-6.57,0-5.17,5.6-7.08,12.04-7.08,4.23,0,8.03.89,10.77,2.07l-2.13,4.93c-2.24-.92-5.55-1.62-9.05-1.62-2.67,0-5.17.32-5.17,1.37,0,.75,1.27.94,3.53,1.08,8.08.46,14.33,1.56,14.33,6.65,0,4.74-5.06,7.06-12.15,7.06-6.17,0-10.18-1.45-12.93-2.75l2.34-4.93Z"/>
  </g>
</svg>