<?xml version="1.0" encoding="UTF-8"?>
<svg id="Capa_1" data-name="Capa 1" xmlns="http://www.w3.org/2000/svg" viewBox="0 0 32 12">
  <defs>
    <style>
      .cls-1 {
        fill: #ccc;
        fill-rule: evenodd;
      }
    </style>
  </defs>
  <path class="cls-1" d="M19.61,8.55c-1.74,1.28-4.27,1.97-6.45,1.97-3.05,0-5.8-1.13-7.87-3-.16-.15-.02-.35.18-.23,2.24,1.31,5.01,2.09,7.88,2.09,1.93,0,4.06-.4,6.01-1.23.3-.13.54.19.25.41M20.34,7.72c-.22-.29-1.47-.13-2.03-.07-.17.02-.2-.13-.04-.24,1-.7,2.63-.5,2.82-.26s-.05,1.88-.99,2.66c-.14.12-.28.06-.22-.1.21-.53.68-1.7.46-1.99"/>
  <path class="cls-1" d="M18.34,2.47v-.68c0-.09.07-.17.16-.17,0,0,0,0,0,0h3.05c.1,0,.18.07.18.17v.58c0,.1-.08.23-.23.43l-1.58,2.26c.59-.01,1.21.07,1.74.37.12.07.15.17.16.27v.73c0,.1-.11.22-.23.16-.94-.49-2.19-.55-3.22,0-.11.06-.22-.06-.22-.16v-.69c0-.11,0-.3.11-.47l1.83-2.63h-1.59c-.1,0-.18-.07-.18-.17M7.21,6.72h-.93c-.09,0-.16-.07-.17-.16V1.8c0-.1.08-.17.18-.17h.87c.09,0,.16.07.17.16v.62h.02c.23-.6.65-.88,1.22-.88s.94.28,1.21.88c.23-.6.74-.88,1.28-.88.39,0,.81.16,1.07.52.29.4.23.98.23,1.49v3.01c0,.1-.08.17-.18.17h-.93c-.09,0-.17-.08-.17-.17v-2.53c0-.2.02-.7-.03-.89-.07-.32-.28-.41-.55-.41-.23,0-.46.15-.56.39s-.09.64-.09.91v2.53c0,.1-.08.17-.18.17h-.93c-.09,0-.17-.08-.17-.17v-2.53c0-.53.09-1.31-.57-1.31s-.64.76-.64,1.31v2.53c0,.1-.08.17-.18.17M24.37,1.53c1.38,0,2.12,1.18,2.12,2.69s-.82,2.61-2.12,2.61-2.09-1.18-2.09-2.66.75-2.64,2.09-2.64M24.38,2.5c-.68,0-.73.93-.73,1.51s0,1.83.72,1.83.75-1,.75-1.61c0-.4-.02-.88-.14-1.26-.1-.33-.31-.46-.61-.46M28.28,6.72h-.92c-.09,0-.17-.08-.17-.17V1.78c0-.09.08-.16.18-.16h.86c.08,0,.15.06.17.13v.73h.02c.26-.65.62-.96,1.27-.96.42,0,.82.15,1.08.56.24.38.24,1.02.24,1.48v3c-.01.08-.09.15-.18.15h-.93c-.08,0-.16-.07-.16-.15v-2.59c0-.52.06-1.28-.58-1.28-.23,0-.43.15-.54.38-.13.29-.15.58-.15.9v2.57c0,.1-.08.17-.18.17M15.91,4.44c0,.36,0,.66-.17.98-.15.26-.38.42-.64.42-.36,0-.57-.27-.57-.67,0-.79.71-.94,1.38-.94v.2M16.84,6.71c-.06.05-.15.06-.22.02-.31-.26-.36-.38-.53-.62-.51.52-.87.68-1.53.68-.78,0-1.39-.48-1.39-1.45,0-.75.41-1.27.99-1.52.5-.22,1.21-.26,1.75-.32v-.12c0-.22.02-.48-.11-.67-.11-.17-.33-.24-.52-.24-.35,0-.67.18-.75.56-.02.08-.08.17-.16.17l-.9-.1c-.08-.02-.16-.08-.14-.2.21-1.09,1.19-1.42,2.08-1.42.45,0,1.04.12,1.4.46.45.42.41.98.41,1.6v1.45c0,.44.18.63.35.86.06.08.07.18,0,.25l-.71.62h0M3.74,4.45c0,.36,0,.66-.17.98-.15.26-.38.42-.64.42-.36,0-.56-.27-.56-.67,0-.79.71-.94,1.38-.94v.2M4.67,6.71c-.06.05-.15.06-.22.02-.31-.26-.36-.38-.53-.62-.51.52-.87.68-1.53.68-.78,0-1.39-.48-1.39-1.45,0-.75.41-1.27.99-1.52.5-.22,1.21-.26,1.75-.32v-.12c0-.22.02-.48-.11-.67-.11-.17-.33-.24-.52-.24-.35,0-.67.18-.75.56-.02.08-.08.17-.16.17l-.9-.1c-.08-.02-.16-.08-.14-.2.21-1.09,1.19-1.42,2.08-1.42.45,0,1.04.12,1.4.46.45.42.41.98.41,1.6v1.45c0,.44.18.63.35.86.06.08.07.18,0,.25l-.71.62h0"/>
</svg>