<?xml version="1.0" encoding="UTF-8"?>
<svg id="Capa_1" data-name="Capa 1" xmlns="http://www.w3.org/2000/svg" viewBox="0 0 32 12">
  <defs>
    <style>
      .cls-1 {
        fill: #fff;
      }

      .cls-1, .cls-2 {
        fill-rule: evenodd;
      }

      .cls-2 {
        fill: #ccc;
      }
    </style>
  </defs>
  <path class="cls-2" d="M1,3.58h3.86v4.84H1V3.58ZM5.35,7.01v-3.43h3.88v4.85h-3.87v-1.41ZM9.71,8.21V3.58h3.87v4.84h-3.86v-.21h0ZM14.08,3.59h3.85s.01,4.83.01,4.83h-3.86s0-4.83,0-4.83h0ZM18.43,8.42V3.59h3.87v4.82l-3.87.02h0ZM22.79,8.42V3.59h3.87v4.84h-3.87ZM27.13,3.59h3.87v4.84h-3.86V3.59Z"/>
  <path class="cls-1" d="M1.7,7.55h1.49c.55,0,1.14-.2,1.14-.85,0-.4-.28-.64-.59-.84.29-.14.49-.33.49-.67,0-.57-.57-.8-1.08-.8h-1.46v3.16h0ZM5.79,7.54h.65l.24-.64h1.19l.23.64h.7l-1.21-3.16h-.65l-1.14,3.16h0ZM12.33,4.39v2.05c0,.45-.22.73-.7.7-.38-.02-.61-.24-.61-.63v-2.12h-.7v2.16c0,.76.57,1.15,1.3,1.15s1.4-.35,1.4-1.14v-2.17h-.69ZM15.4,7.55v-1.22h1.3v1.22h.66v-3.17h-.66v1.39h-1.3v-1.39h-.69v3.17h.69ZM18.86,7.55h.67l.2-.62h1.21l.25.62h.61l-1.09-3.16h-.73l-1.13,3.16ZM26.07,4.4h-.65v2.2c0,.35-.41.57-.71.57-.34,0-.63-.27-.63-.6v-2.17h-.69v2.18c0,.75.63,1.13,1.32,1.13s1.36-.35,1.36-1.13v-2.18h0,0ZM27.91,6.91v.66h1.86c.45,0,.76-.56.76-.96,0-.47-.35-1.04-.86-1.04h-1.02c-.17,0-.27-.24-.19-.38.06-.1.18-.15.3-.15h1.53s0-.66,0-.66h-1.53c-.53,0-1.03.35-1.03.92,0,.68.63.97,1.23.97h.46c.21.01.42.09.39.34-.02.22-.23.3-.42.3h-1.49,0ZM30.43,3.66c-.19,0-.34.16-.35.35,0,.2.16.36.35.36.2,0,.35-.16.36-.35,0,0,0,0,0,0,0-.19-.16-.35-.36-.35Z"/>
  <path class="cls-2" d="M2.36,7.04v-.88h.74c.27,0,.55.16.55.45s-.29.42-.54.42h-.75s0,0,0,0ZM2.36,4.92h.78c.16,0,.37.06.41.24.07.3-.18.5-.44.5h-.75v-.74h0ZM6.85,6.39l.43-1.34.41,1.33h-.85s0,0,0,0ZM19.92,6.39l.44-1.35.42,1.35h-.87ZM30.44,3.7c.17,0,.3.14.31.31,0,.18-.14.32-.31.32-.18,0-.32-.15-.32-.32s.15-.31.32-.31Z"/>
  <path class="cls-1" d="M30.28,4.18h.09v-.13h.1l.05.13h.1l-.08-.16s.04-.05.04-.1-.03-.11-.09-.11h-.21v.37h0Z"/>
  <path class="cls-2" d="M30.37,3.98v-.1h.06s.06.02.06.05c0,.04-.02.05-.05.05h-.07Z"/>
</svg>