<?xml version="1.0" encoding="UTF-8"?>
<svg id="Capa_1" data-name="Capa 1" xmlns="http://www.w3.org/2000/svg" viewBox="0 0 32 12">
  <defs>
    <style>
      .cls-1 {
        fill: #ccc;
      }
    </style>
  </defs>
  <path class="cls-1" d="M6.25,7.39c-.46,0-.76-.38-.76-.96,0-.62.3-1,.77-1,.45,0,.73.37.73.96s-.29,1-.74,1M6.25,4.9c-.94,0-1.57.61-1.57,1.51s.59,1.51,1.54,1.51,1.59-.6,1.59-1.52-.6-1.5-1.56-1.5M18.89,4.93c-.85,0-1.19.36-1.19,1.23v.07c0,.53-.01,1.11-.03,1.42v.19s.84,0,.84,0l-.02-.17c-.01-.27-.02-.52-.02-.78v-.57s0-.15,0-.15c.01-.3.12-.67.53-.67.13,0,.27.03.39.07l.04.03.09-.57h-.03c-.2-.06-.4-.09-.61-.1M13.52,5.49l.08-.56h-.88v-.19c.02-.42.18-.63.49-.63.19,0,.37.02.55.07h.04s.08-.55.08-.55h-.03c-.24-.07-.49-.1-.74-.11-.72,0-1.14.43-1.17,1.21v1.55s0,1.26,0,1.26v.76s-.01.17-.01.17h.82v-.18l-.02-.74v-.81s0-.65,0-.65c0,0,0-.47,0-.6h.8ZM15.5,7.39c-.46,0-.76-.38-.76-.96,0-.62.3-1,.77-1s.73.37.73.96-.29,1-.74,1M15.5,4.9c-.94,0-1.57.61-1.57,1.51s.59,1.51,1.54,1.51,1.59-.6,1.59-1.52-.6-1.5-1.56-1.5M11.1,7.12v-.96c0-.77-.42-1.23-1.14-1.23h-.47c-.71,0-1.14.46-1.14,1.23v.17c0,.75,0,.93-.03,1.47v.04h.84v-.22s-.03-.61-.03-.61v-.6s-.01-.07-.01-.07c0-.33.02-.42.09-.56.08-.17.28-.28.52-.28s.44.11.52.28c.07.14.09.24.09.56v.67s-.03.61-.03.61v.22s.82,0,.82,0v-.2s-.01-.52-.01-.52M27.81,7.12v-.96c.01-.52-.11-.82-.41-1.02-.19-.13-.46-.21-.77-.21-.43,0-.78.13-1.01.38-.2-.24-.5-.37-.87-.37h-.47c-.72,0-1.14.46-1.14,1.23v.17c0,.75,0,.93-.03,1.47v.04s.84,0,.84,0v-.22s-.03-.61-.03-.61v-.6s-.01-.07-.01-.07c0-.33.02-.42.09-.57.08-.17.28-.28.52-.28s.44.11.52.28c.07.14.09.24.09.57v.67s-.03.61-.03.61v.22s.82,0,.82,0v-.2s-.01-.52-.01-.52v-1.01c.01-.1.04-.2.08-.29.03-.08.08-.15.15-.2.1-.09.24-.14.37-.14.23,0,.44.14.51.36.03.12.04.22.04.62,0,.46,0,.77-.04,1.2v.14s-.02.04-.02.04h.85v-.16s-.01-.56-.01-.56M30.25,6.54v.07c0,.27,0,.36-.06.48-.04.07-.09.12-.16.16-.13.07-.27.1-.41.09-.15,0-.3-.05-.41-.15-.11-.12-.1-.3-.03-.41.11-.17.37-.24.89-.24h.18M31,5.95v-.06c0-.46-.14-.72-.49-.87-.21-.1-.44-.14-.76-.14-.37,0-.74.05-1.09.16h-.03s.08.58.08.58l.04-.02c.27-.12.57-.19.87-.19.45,0,.63.17.63.57v.07c-.63-.03-1.11,0-1.37.13-.37.16-.56.42-.56.76,0,.37.23.69.56.83.38.17.93.13,1.15.1.18-.02.78-.13.91-.6.06-.21.05-1.05.05-1.32M21.83,6.59v.07c0,.27,0,.36-.06.48-.04.07-.09.12-.16.16-.13.07-.27.1-.41.09-.15,0-.3-.05-.41-.15-.11-.12-.1-.3-.03-.41.11-.17.37-.24.89-.24h.18M22.58,5.94c0-.46-.14-.72-.49-.87-.21-.1-.44-.14-.76-.14-.37,0-.74.05-1.09.16h-.03s.08.58.08.58l.04-.02c.27-.12.57-.19.87-.19.45,0,.63.17.63.57,0,0,0,.04,0,.07-.63-.03-1.1,0-1.37.13-.37.16-.56.42-.56.76,0,.37.23.69.57.83.38.17.93.13,1.15.1.18-.02.78-.13.91-.6.06-.21.05-1.05.05-1.32v-.06ZM3.31,4.12c.08,0,.68.02,1.09.25l.04.02v-.69h-.01c-.4-.13-.82-.19-1.25-.17-.71.03-1.28.27-1.67.7-.35.4-.53.95-.51,1.59.02.61.22,1.12.57,1.48.4.4.99.59,1.72.57.25,0,.51-.04.75-.1h.04s-.21-.57-.21-.57h-.03c-.14.04-.28.06-.42.07-.9.03-1.41-.49-1.44-1.47-.03-1,.48-1.64,1.33-1.67"/>
</svg>