<?xml version="1.0" encoding="UTF-8"?>
<svg id="Capa_1" data-name="Capa 1" xmlns="http://www.w3.org/2000/svg" viewBox="0 0 32 12">
  <defs>
    <style>
      .cls-1 {
        fill-rule: evenodd;
      }

      .cls-1, .cls-2 {
        fill: #ccc;
      }
    </style>
  </defs>
  <path class="cls-1" d="M.54.5v11h0s30.93,0,30.93,0V.5H.54ZM28.19,8.99c-3.84,1.59-8.02,2.06-12.14,2.06s-8.35-.44-12.17-2.06c-1.14-.48-2.93-1.56-2.93-2.99s1.8-2.51,2.93-2.99C7.69,1.39,11.93.95,16.04.95s8.3.47,12.14,2.06c1.23.51,2.87,1.47,2.87,2.99s-1.64,2.48-2.87,2.99Z"/>
  <g>
    <polygon class="cls-2" points="20.4 6.53 20.4 6.53 20.4 6.53 20.4 6.53"/>
    <path class="cls-2" d="M7.82,3.84h-2.96c.08.07.15.15.15.27v3.64c0,.11-.07.2-.15.27h2.96c-.08-.07-.16-.16-.16-.27v-3.64c0-.12.07-.2.16-.27Z"/>
    <path class="cls-2" d="M15.36,7.75l-1.38-2.18,1-1.46c.08-.12.18-.21.3-.27h-2.86s.04.09.04.14-.02.09-.04.13l-.84,1.26v-1.26c0-.12.07-.2.16-.27h-2.89c.08.08.16.16.16.27v3.64c0,.11-.08.2-.16.27h2.89c-.08-.07-.16-.16-.16-.27v-1.27h0s.74,1.27.74,1.27c.03.05.06.1.06.16,0,.04-.03.08-.06.11h3.33c-.12-.07-.22-.15-.3-.27Z"/>
    <path class="cls-2" d="M28.24,8.02c-.06-.06-.1-.11-.13-.19l-1.44-3.52c-.03-.08-.06-.17-.06-.27,0-.08.03-.15.06-.21h-3.95c.03.07.06.13.06.21,0,.09-.03.18-.06.27l-1.3,3.52c-.03.07-.07.13-.12.19h2.44s-.04-.09-.04-.14c0-.02,0-.05.01-.07l.21-.63h1.06s.23.59.23.59c.01.03.01.06.01.09,0,.06-.01.11-.03.16h3.05ZM24.19,6.34l.23-.67.25.67h-.47Z"/>
    <path class="cls-2" d="M18.7,6.67v-.24h1.43c.1,0,.18.04.26.09v-1.3c-.08.06-.17.09-.26.09h-1.43v-.27h1.89c.09,0,.18.04.26.09v-1.3h-4.79c.08.07.16.16.16.27v3.65c0,.11-.08.2-.16.27h4.79v-1.43c-.08.05-.17.09-.26.09h-1.89Z"/>
  </g>
</svg>