<?xml version="1.0" encoding="UTF-8"?>
<svg id="Capa_1" data-name="Capa 1" xmlns="http://www.w3.org/2000/svg" viewBox="0 0 32 12">
  <defs>
    <style>
      .cls-1 {
        fill: #ccc;
      }
    </style>
  </defs>
  <path class="cls-1" d="M9.09,3.65c.27.01.22-.11.22-.11-.12-.1-.85-.51-.85-.51-.1.26.04.57.04.57,0,0,.32.04.58.05Z"/>
  <path class="cls-1" d="M5.19,1v.84c.3-.15.75-.3,1.32-.3,1.08,0,1.58.69,1.58.69,0,0,.64.27,1.09.61.45.35.82.72.85.77.03.05.11.25-.16.33-.28.09-.82.19-1.38.19,0,0-.37.65-.95.85-.58.2-1.25,0-1.28.54-.02.37.3.8.43.98.12.17,1.52,1.56,1.43,3.69-.02.46-.09.8-.09.8h-.56c.07-.24.09-.5.09-.5,0-.07.01-.14.02-.21.04-.87-.27-1.94-.91-2.8-.65-.87-1.06-1.51-1.06-2.04s.39-.78.66-.85c.28-.06,1-.06,1.26-.28.26-.22.41-.53.38-.92-.03-.39-.12-1.23-1.43-1.3-.46-.02-.94.17-1.27.42v8.48h21.62V1H5.19ZM6.64,2.74s.1-.07.17-.07c.1,0,.22.05.31.14.1.09.15.21.15.31,0,.06-.02.12-.06.16-.11.11-.32.08-.48-.07-.09-.09-.15-.2-.15-.31,0-.07.02-.13.06-.17ZM12.49,6.71c0,.91-.64,1.56-1.56,1.56-.47,0-.99-.21-1.37-.5l.56-1.41c.08.22.18.48.44.48s.29-.3.29-.5v-2.72h1.63v3.08ZM15.97,8.2h-1.62v-1.97l-1.59-2.6h1.88l.51,1.19h.05c.05-.15.09-.29.15-.43l.33-.76h1.87l-1.56,2.6v1.97ZM18.93,8.27c-.58,0-1.24-.16-1.76-.42l.51-1.29.08.07c.3.23.65.42,1.04.42.16,0,.42-.07.42-.27s-.22-.22-.37-.25l-.33-.06c-.65-.11-1.19-.5-1.19-1.21,0-1.09.99-1.69,1.98-1.69.52,0,1,.13,1.45.4l-.45,1.17c-.28-.19-.61-.35-.96-.35-.15,0-.36.06-.36.24,0,.17.21.19.33.22l.38.08c.7.16,1.21.53,1.21,1.31,0,1.09-.99,1.63-1.98,1.63ZM24.09,8.2l-.79-1.38c-.1-.18-.24-.35-.28-.53h-.04l.04,1.92h-1.62V3.63h1.62l-.04,1.98h.04c.04-.19.14-.35.23-.52l.8-1.47h1.81l-1.43,2.23,1.58,2.35h-1.93Z"/>
</svg>