<?xml version="1.0" encoding="UTF-8"?>
<svg id="Capa_1" data-name="Capa 1" xmlns="http://www.w3.org/2000/svg" viewBox="0 0 32 12">
  <defs>
    <style>
      .cls-1 {
        fill: #ccc;
      }
    </style>
  </defs>
  <path class="cls-1" d="M14.79,2.51c-.13-.13-.25-.25-.36-.36.54-.55,1.08-1.1,1.61-1.65.18.18.36.35.52.52.02.02,0,.06,0,.09-.17.33-.33.66-.5.99-.02.03-.03.06-.05.11l.1-.04c.34-.16.69-.31,1.03-.47.06-.03.09-.03.14.02.15.15.31.3.44.43-.55.57-1.09,1.12-1.63,1.66-.14-.13-.27-.26-.39-.38.27-.27.54-.55.81-.82v-.02s-.1.03-.1.03l-.98.44c-.05.02-.09.03-.13-.02-.06-.07-.16-.13-.17-.2-.01-.07.06-.16.09-.24.14-.3.28-.6.4-.91-.28.27-.56.54-.84.81ZM23.71,10.4s.01-.05.01-.06c.15-.52.3-1.04.44-1.56,0-.03.02-.08,0-.1-.18-.18-.36-.36-.55-.54l-1.61,1.65c.11.11.24.24.38.37.35-.35.72-.7,1.07-1.04,0-.01,0,0,0,.01-.12.51-.24,1.02-.37,1.52-.03.14-.03.23.09.33.13.11.24.24.37.36l1.62-1.65c-.11-.11-.24-.23-.38-.38-.34.35-.69.71-1.05,1.08h0ZM17.65,5.39c.09-.1.21-.21.33-.34-.23-.22-.47-.45-.69-.67.13-.13.24-.24.36-.37.18.18.36.36.55.54.11-.11.22-.22.35-.35-.18-.18-.38-.36-.55-.53l.25-.27c.24.23.48.47.71.7.1-.1.21-.21.31-.32-.38-.37-.77-.75-1.16-1.13l-1.61,1.64c.37.36.75.73,1.13,1.1ZM9.28,8.36c-.12-.11-.22-.2-.31-.28.22-.24.45-.47.68-.72-.1-.09-.21-.19-.32-.3-.37.36-.75.74-1.12,1.1l1.64,1.64c.37-.36.75-.73,1.14-1.11-.11-.11-.22-.21-.33-.31-.23.22-.47.46-.7.68l-.35-.33c.19-.2.37-.4.56-.6-.11-.1-.22-.2-.36-.33l-.52.56ZM13.29,3.3c-.05-.02-.09-.02-.13.03-.11.12-.23.23-.35.35-.02.02-.03.03-.05.06.29.09.57.18.85.27.2.06.42.1.6.21.17.11.31.28.46.44.08.08.15.16.22.25.15-.16.28-.3.42-.45-.18-.19-.38-.38-.57-.58-.03-.03-.06-.08-.07-.12-.07-.28-.13-.56-.2-.83-.05-.22-.11-.45-.17-.69-.16.16-.31.31-.46.46-.02.02-.02.06,0,.08.03.11.06.22.09.34.05.16.09.33.14.51-.28-.11-.53-.2-.79-.3ZM21.82,6.35l-.43-.41c-.53.54-1.07,1.09-1.61,1.65.36.36.74.72,1.12,1.09.12-.12.25-.25.39-.39-.22-.22-.46-.45-.69-.68.42-.43.83-.85,1.23-1.26ZM8.46,11.17c.38-.37.75-.73,1.13-1.1-.13-.12-.26-.24-.39-.36-.22.21-.45.44-.69.67-.42-.43-.83-.85-1.24-1.28-.14.14-.27.28-.4.43.53.54,1.06,1.09,1.61,1.64h0ZM22.82,7.36c-.53.54-1.07,1.09-1.6,1.64.12.12.26.26.41.4.53-.54,1.07-1.09,1.61-1.64-.12-.12-.26-.25-.41-.4ZM20.55,6.02c-.22.18-.47.23-.74.12-.12.36-.24.72-.35,1.09-.14-.14-.28-.27-.41-.41-.02-.02-.01-.08,0-.11.1-.44.19-.87.29-1.31,0-.02,0-.03,0-.06-.29.3-.57.59-.85.88l-.42-.41,1.59-1.65c.36.34.7.66,1.02,1.01.22.22.15.65-.11.86ZM20.14,5.28c-.12-.13-.25-.24-.38-.36-.12.12-.24.25-.38.38.08.08.16.17.24.25.02.02.03.04.05.05.03.03.07.05.11.07.12.05.26.02.34-.09.09-.11.11-.22.03-.3h0ZM13.98,5.35c0,.62-.58,1.18-1.23,1.18s-1.18-.57-1.18-1.19c0-.69.5-1.2,1.18-1.2.67,0,1.21.52,1.22,1.19,0,0,0,.01,0,.02ZM13.41,5.35c-.11-.27-.31-.5-.57-.64-.16-.09-.35-.07-.49.04-.16.11-.25.27-.23.47.03.33.5.75.83.75.3,0,.58-.35.47-.63ZM12.61,7.08c-.13.14-.25.27-.38.41-.02.02-.07.01-.11,0-.41-.11-.82-.22-1.23-.32-.03,0-.06-.01-.09,0l.84.86c-.14.15-.27.29-.4.43l-1.65-1.62s.04-.05.05-.06c.26-.26.52-.51.78-.77.17-.17.38-.25.62-.22.31.04.54.29.55.61,0,.11-.02.23-.02.35.35.11.71.23,1.05.34ZM11.04,6.45c-.1-.1-.23-.13-.34-.04-.12.09-.22.2-.34.3.14.13.28.26.42.39.06-.06.14-.13.22-.2.03-.03.06-.06.08-.09.08-.12.06-.25-.05-.36ZM23.13,11.5h-14.33s-.02-.02-.03-.03c.03-.02.06-.02.09-.05.99-.98,1.99-1.97,2.98-2.94l3.48-3.45c.2-.2.41-.39.61-.6.06-.06.1-.06.16,0,1.13,1.14,2.27,2.27,3.4,3.41,1.2,1.2,2.39,2.39,3.58,3.58.02.02.05.04.08.06,0,0-.01.02-.02.02Z"/>
</svg>